<svg width="25" height="35" viewBox="0 0 25 35" fill="none" xmlns="http://www.w3.org/2000/svg">
<path fill-rule="evenodd" clip-rule="evenodd" d="M0 26.7857V3.21429C0 1.43893 1.39896 0 3.125 0H12.7281C13.5594 0 14.3562 0.340717 14.9427 0.947146L24.0906 10.4036C24.6729 11.0057 25 11.82 25 12.6696V26.7857C25 27.6386 24.6708 28.4561 24.0844 29.0582C23.499 29.6614 22.7042 30 21.875 30H3.125C1.39896 30 0 28.5611 0 26.7857ZM21.4521 10.7143L14.6354 3.6675V9.64286C14.6354 10.2343 15.1021 10.7143 15.6771 10.7143H21.4521Z" fill="#AFBFD1"/>
<circle cx="13" cy="27" r="8" fill="white"/>
<path d="M13 33C14.1867 33 15.3467 32.6481 16.3334 31.9888C17.3201 31.3295 18.0891 30.3925 18.5433 29.2961C18.9974 28.1997 19.1162 26.9933 18.8847 25.8295C18.6532 24.6656 18.0818 23.5965 17.2426 22.7574C16.4035 21.9182 15.3344 21.3468 14.1705 21.1153C13.0067 20.8838 11.8003 21.0026 10.7039 21.4567C9.60754 21.9109 8.67047 22.6799 8.01118 23.6666C7.35189 24.6533 7 25.8133 7 27C7.00191 28.5907 7.63466 30.1157 8.75946 31.2405C9.88427 32.3653 11.4093 32.9981 13 33ZM10.9108 25.7052C11.224 25.3776 11.5492 25.0596 11.8708 24.7392C12.0532 24.5568 12.2392 24.3792 12.418 24.192C12.76 23.832 13.264 23.8428 13.6348 24.2292C14.0848 24.6984 14.548 25.1532 15.0112 25.608C15.2512 25.848 15.3652 26.1216 15.268 26.4588C15.2223 26.6109 15.1301 26.7448 15.0044 26.8419C14.8788 26.9389 14.7259 26.9942 14.5672 27C14.3056 27 14.044 27 13.768 27V27.12C13.768 27.84 13.768 28.5628 13.768 29.2884C13.773 29.4184 13.7438 29.5474 13.6834 29.6625C13.6229 29.7777 13.5334 29.875 13.4236 29.9448C13.3086 30.0204 13.1753 30.0636 13.0379 30.0698C12.9004 30.0759 12.7638 30.0449 12.6425 29.9799C12.5212 29.9149 12.4197 29.8183 12.3487 29.7004C12.2777 29.5825 12.2399 29.4476 12.2392 29.31C12.2392 28.806 12.2392 28.3032 12.2392 27.7992C12.2392 27.5376 12.2392 27.2772 12.2392 27.0036C11.9776 27.0036 11.7292 27.0036 11.4808 27.0036C11.3288 27.0099 11.1785 26.9689 11.0508 26.8861C10.9231 26.8033 10.8243 26.683 10.768 26.5416C10.7002 26.405 10.6774 26.2504 10.7031 26.1001C10.7288 25.9498 10.8015 25.8115 10.9108 25.7052Z" fill="#AFBFD1"/>
</svg>
