<svg width="95" height="197" viewBox="0 0 95 197" fill="none" xmlns="http://www.w3.org/2000/svg">
<path d="M73.209 93.1958C73.7612 93.1958 74.209 92.7481 74.209 92.1958C74.209 91.6435 73.7612 91.1958 73.209 91.1958V93.1958ZM0.314453 93.1958H73.209V91.1958H0.314453V93.1958Z" fill="#2FD89B"/>
<path d="M49.3371 122.594L49.3371 123.594L49.3371 122.594ZM73.209 121.594C73.7612 121.594 74.209 122.042 74.209 122.594C74.209 123.147 73.7612 123.594 73.209 123.594V121.594ZM0.391403 91.1986C8.75208 91.8439 14.1293 94.114 17.9582 97.2395C21.7603 100.343 23.9475 104.228 26.014 107.849C28.1043 111.512 30.065 114.891 33.4059 117.401C36.716 119.888 41.4939 121.594 49.3371 121.594L49.3371 123.594C41.1946 123.594 35.9548 121.817 32.2046 119C28.4852 116.206 26.3429 112.461 24.277 108.841C22.1872 105.179 20.1648 101.622 16.6935 98.7889C13.2489 95.9771 8.28874 93.8141 0.237503 93.1927L0.391403 91.1986ZM49.3371 121.594C53.9983 121.594 59.9663 121.594 64.769 121.594C67.1703 121.594 69.2803 121.594 70.79 121.594C71.5448 121.594 72.1495 121.594 72.5656 121.594C72.7736 121.594 72.9344 121.594 73.0433 121.594C73.0977 121.594 73.1391 121.594 73.1669 121.594C73.1808 121.594 73.1913 121.594 73.1984 121.594C73.2019 121.594 73.2045 121.594 73.2063 121.594C73.2072 121.594 73.2078 121.594 73.2083 121.594C73.2085 121.594 73.2087 121.594 73.2088 121.594C73.2089 121.594 73.209 121.594 73.209 122.594C73.209 123.594 73.2089 123.594 73.2088 123.594C73.2087 123.594 73.2085 123.594 73.2083 123.594C73.2078 123.594 73.2072 123.594 73.2063 123.594C73.2045 123.594 73.2019 123.594 73.1984 123.594C73.1913 123.594 73.1808 123.594 73.1669 123.594C73.1391 123.594 73.0977 123.594 73.0433 123.594C72.9344 123.594 72.7736 123.594 72.5656 123.594C72.1495 123.594 71.5448 123.594 70.79 123.594C69.2803 123.594 67.1703 123.594 64.769 123.594C59.9663 123.594 53.9983 123.594 49.3371 123.594L49.3371 121.594Z" fill="#2FD89B"/>
<path d="M49.3371 61.7969L49.3371 60.7969L49.3371 61.7969ZM73.209 62.7969C73.7612 62.7969 74.209 62.3492 74.209 61.7969C74.209 61.2446 73.7612 60.7969 73.209 60.7969V62.7969ZM0.391403 93.1925C8.75208 92.5472 14.1293 90.2771 17.9582 87.1516C21.7603 84.048 23.9475 80.163 26.014 76.5418C28.1043 72.8791 30.065 69.4998 33.4059 66.99C36.716 64.5033 41.4939 62.7969 49.3371 62.7969L49.3371 60.7969C41.1946 60.7969 35.9548 62.5737 32.2046 65.3909C28.4852 68.185 26.3429 71.9303 24.277 75.5505C22.1872 79.2124 20.1648 82.7686 16.6935 85.6023C13.2489 88.414 8.28874 90.577 0.237503 91.1984L0.391403 93.1925ZM49.3371 62.7969C53.9983 62.7969 59.9663 62.7969 64.769 62.7969C67.1703 62.7969 69.2803 62.7969 70.79 62.7969C71.5448 62.7969 72.1495 62.7969 72.5656 62.7969C72.7736 62.7969 72.9344 62.7969 73.0433 62.7969C73.0977 62.7969 73.1391 62.7969 73.1669 62.7969C73.1808 62.7969 73.1913 62.7969 73.1984 62.7969C73.2019 62.7969 73.2045 62.7969 73.2063 62.7969C73.2072 62.7969 73.2078 62.7969 73.2083 62.7969C73.2085 62.7969 73.2087 62.7969 73.2088 62.7969C73.2089 62.7969 73.209 62.7969 73.209 61.7969C73.209 60.7969 73.2089 60.7969 73.2088 60.7969C73.2087 60.7969 73.2085 60.7969 73.2083 60.7969C73.2078 60.7969 73.2072 60.7969 73.2063 60.7969C73.2045 60.7969 73.2019 60.7969 73.1984 60.7969C73.1913 60.7969 73.1808 60.7969 73.1669 60.7969C73.1391 60.7969 73.0977 60.7969 73.0433 60.7969C72.9344 60.7969 72.7736 60.7969 72.5656 60.7969C72.1495 60.7969 71.5448 60.7969 70.79 60.7969C69.2803 60.7969 67.1703 60.7969 64.769 60.7969C59.9663 60.7969 53.9983 60.7969 49.3371 60.7969L49.3371 62.7969Z" fill="#2FD89B"/>
<path d="M49.4759 31.3984L49.4759 30.3984L49.4759 31.3984ZM73.209 32.3984C73.7612 32.3984 74.209 31.9507 74.209 31.3985C74.209 30.8462 73.7612 30.3984 73.209 30.3984V32.3984ZM0.39185 93.1925C8.92543 92.5301 14.3508 88.1906 18.1399 82.1592C21.886 76.1963 24.0661 68.5258 26.1748 61.1209C28.3059 53.637 30.3621 46.435 33.8143 41.0839C35.5276 38.4281 37.5628 36.267 40.087 34.7665C42.6052 33.2697 45.6633 32.3985 49.4759 32.3984L49.4759 30.3984C45.3421 30.3985 41.9239 31.348 39.0651 33.0473C36.2122 34.7431 33.9697 37.1537 32.1336 39.9997C28.4871 45.6522 26.3581 53.1745 24.2512 60.5732C22.1218 68.0509 20.011 75.4213 16.4464 81.0953C12.9248 86.7009 8.01998 90.5944 0.237056 91.1985L0.39185 93.1925ZM49.4759 32.3984C54.11 32.3984 60.0433 32.3984 64.818 32.3984C67.2054 32.3984 69.3031 32.3984 70.804 32.3984C71.5545 32.3984 72.1557 32.3984 72.5693 32.3984C72.7761 32.3984 72.936 32.3984 73.0442 32.3984C73.0983 32.3984 73.1395 32.3984 73.1672 32.3984C73.181 32.3984 73.1914 32.3984 73.1984 32.3984C73.2019 32.3984 73.2046 32.3984 73.2063 32.3984C73.2072 32.3984 73.2078 32.3984 73.2083 32.3984C73.2085 32.3984 73.2087 32.3984 73.2088 32.3984C73.2089 32.3984 73.209 32.3984 73.209 31.3984C73.209 30.3984 73.2089 30.3984 73.2088 30.3984C73.2087 30.3984 73.2085 30.3984 73.2083 30.3984C73.2079 30.3984 73.2072 30.3984 73.2063 30.3984C73.2046 30.3984 73.2019 30.3984 73.1984 30.3984C73.1915 30.3984 73.181 30.3984 73.1672 30.3984C73.1395 30.3984 73.0984 30.3984 73.0443 30.3984C72.936 30.3984 72.7761 30.3984 72.5693 30.3984C72.1557 30.3984 71.5545 30.3984 70.804 30.3984C69.3031 30.3984 67.2054 30.3984 64.818 30.3984C60.0433 30.3984 54.11 30.3984 49.4759 30.3984L49.4759 32.3984Z" fill="#2FD89B"/>
<path d="M49.4759 152.992L49.4759 153.992L49.4759 152.992ZM73.209 151.992C73.7612 151.992 74.209 152.44 74.209 152.992C74.209 153.544 73.7612 153.992 73.209 153.992V151.992ZM0.39185 91.1981C8.92543 91.8605 14.3508 96.2 18.1399 102.231C21.886 108.194 24.0661 115.865 26.1748 123.27C28.3059 130.754 30.3621 137.956 33.8143 143.307C35.5276 145.963 37.5628 148.124 40.087 149.624C42.6052 151.121 45.6633 151.992 49.4759 151.992L49.4759 153.992C45.3421 153.992 41.9239 153.043 39.0651 151.343C36.2122 149.647 33.9697 147.237 32.1336 144.391C28.4871 138.738 26.3581 131.216 24.2512 123.817C22.1218 116.34 20.011 108.969 16.4464 103.295C12.9248 97.6898 8.01998 93.7963 0.237056 93.1921L0.39185 91.1981ZM49.4759 151.992C54.11 151.992 60.0433 151.992 64.818 151.992C67.2054 151.992 69.3031 151.992 70.804 151.992C71.5545 151.992 72.1557 151.992 72.5693 151.992C72.7761 151.992 72.936 151.992 73.0442 151.992C73.0983 151.992 73.1395 151.992 73.1672 151.992C73.181 151.992 73.1914 151.992 73.1984 151.992C73.2019 151.992 73.2046 151.992 73.2063 151.992C73.2072 151.992 73.2078 151.992 73.2083 151.992C73.2085 151.992 73.2087 151.992 73.2088 151.992C73.2089 151.992 73.209 151.992 73.209 152.992C73.209 153.992 73.2089 153.992 73.2088 153.992C73.2087 153.992 73.2085 153.992 73.2083 153.992C73.2079 153.992 73.2072 153.992 73.2063 153.992C73.2046 153.992 73.2019 153.992 73.1984 153.992C73.1915 153.992 73.181 153.992 73.1672 153.992C73.1395 153.992 73.0984 153.992 73.0443 153.992C72.936 153.992 72.7761 153.992 72.5693 153.992C72.1557 153.992 71.5545 153.992 70.804 153.992C69.3031 153.992 67.2054 153.992 64.818 153.992C60.0433 153.992 54.11 153.992 49.4759 153.992L49.4759 151.992Z" fill="#2FD89B"/>
<path d="M49.4759 183.392L49.4759 184.392L49.4759 183.392ZM73.209 182.392C73.7612 182.392 74.209 182.839 74.209 183.392C74.209 183.944 73.7612 184.392 73.209 184.392V182.392ZM0.39185 91.1989C9.11789 91.8763 14.5099 98.34 18.2146 107.125C21.92 115.913 24.0828 127.35 26.1957 138.558C28.3217 149.836 30.3965 160.877 33.8943 169.107C37.3911 177.335 42.1428 182.392 49.4759 182.392L49.4759 184.392C40.9162 184.392 35.6556 178.365 32.0536 169.89C28.4527 161.417 26.3424 150.133 24.2303 138.929C22.1052 127.656 19.9769 116.452 16.3717 107.903C12.7658 99.3512 7.82751 93.7822 0.237056 93.1929L0.39185 91.1989ZM49.4759 182.392C54.11 182.392 60.0433 182.392 64.818 182.392C67.2054 182.392 69.3031 182.392 70.804 182.392C71.5545 182.392 72.1557 182.392 72.5693 182.392C72.7761 182.392 72.936 182.392 73.0442 182.392C73.0983 182.392 73.1395 182.392 73.1672 182.392C73.181 182.392 73.1914 182.392 73.1984 182.392C73.2019 182.392 73.2046 182.392 73.2063 182.392C73.2072 182.392 73.2078 182.392 73.2083 182.392C73.2085 182.392 73.2087 182.392 73.2088 182.392C73.2089 182.392 73.209 182.392 73.209 183.392C73.209 184.392 73.2089 184.392 73.2088 184.392C73.2087 184.392 73.2085 184.392 73.2083 184.392C73.2079 184.392 73.2072 184.392 73.2063 184.392C73.2046 184.392 73.2019 184.392 73.1984 184.392C73.1915 184.392 73.181 184.392 73.1672 184.392C73.1395 184.392 73.0984 184.392 73.0443 184.392C72.936 184.392 72.7761 184.392 72.5693 184.392C72.1557 184.392 71.5545 184.392 70.804 184.392C69.3031 184.392 67.2054 184.392 64.818 184.392C60.0433 184.392 54.11 184.392 49.4759 184.392L49.4759 182.392Z" fill="#2FD89B"/>
<path d="M49.4759 1.00001L49.4759 1.10269e-05L49.4759 1.00001ZM73.209 2.00001C73.7612 2.00001 74.209 1.5523 74.209 1.00001C74.209 0.447728 73.7612 1.19805e-05 73.209 1.10269e-05V2.00001ZM0.39185 93.1927C9.11789 92.5153 14.5099 86.0516 18.2146 77.2662C21.92 68.479 24.0828 57.0419 26.1957 45.8331C28.3217 34.5551 30.3965 23.5146 33.8943 15.2843C37.3911 7.05631 42.1428 2.00003 49.4759 2.00001L49.4759 1.10269e-05C40.9162 3.39746e-05 35.6556 6.02657 32.0536 14.502C28.4527 22.975 26.3424 34.2584 24.2303 45.4626C22.1052 56.7361 19.9769 67.9396 16.3717 76.4891C12.7658 85.0404 7.82751 90.6094 0.237056 91.1987L0.39185 93.1927ZM49.4759 2.00001C54.11 2 60.0433 2 64.818 2C67.2054 2 69.3031 2.00001 70.804 2.00001C71.5545 2.00001 72.1557 2.00001 72.5693 2.00001C72.7761 2.00001 72.936 2.00001 73.0442 2.00001C73.0983 2.00001 73.1395 2.00001 73.1672 2.00001C73.181 2.00001 73.1914 2.00001 73.1984 2.00001C73.2019 2.00001 73.2046 2.00001 73.2063 2.00001C73.2072 2.00001 73.2078 2.00001 73.2083 2.00001C73.2085 2.00001 73.2087 2.00001 73.2088 2.00001C73.2089 2.00001 73.209 2.00001 73.209 1.00001C73.209 1.10269e-05 73.2089 1.10269e-05 73.2088 1.10269e-05C73.2087 1.10269e-05 73.2085 1.10269e-05 73.2083 1.10269e-05C73.2079 1.10269e-05 73.2072 1.10269e-05 73.2063 1.10269e-05C73.2046 1.10269e-05 73.2019 1.10269e-05 73.1984 1.10269e-05C73.1915 1.10269e-05 73.181 1.09673e-05 73.1672 1.09673e-05C73.1395 1.09076e-05 73.0984 1.0848e-05 73.0443 1.07884e-05C72.936 1.06096e-05 72.7761 1.03116e-05 72.5693 1.00136e-05C72.1557 9.35793e-06 71.5545 8.52346e-06 70.804 7.56979e-06C69.3031 5.60284e-06 67.2054 3.27826e-06 64.818 1.72853e-06C60.0433 -1.43051e-06 54.11 -1.43051e-06 49.4759 1.10269e-05L49.4759 2.00001Z" fill="#2FD89B"/>
<path d="M94.159 11.9441C94.1847 13.3291 92.9664 14.5586 91.5943 14.5328H84.5414C81.1496 14.4227 81.1561 9.46555 84.5414 9.35554H91.5943C93.0113 9.35554 94.159 10.5139 94.159 11.9441ZM88.0679 8.0677C90.1838 8.0677 91.9021 6.33333 91.9021 4.19126C91.7226 -0.934195 84.4068 -0.934195 84.2273 4.19126C84.2273 6.32686 85.9456 8.0677 88.0615 8.0677H88.0679Z" fill="#6D1ED1"/>
<path d="M94.159 42.597C94.1847 43.9819 92.9664 45.2115 91.5943 45.1856H84.5414C81.1496 45.0756 81.1561 40.1184 84.5414 40.0084H91.5943C93.0113 40.0084 94.159 41.1668 94.159 42.597ZM88.0679 38.7205C90.1838 38.7205 91.9021 36.9862 91.9021 34.8441C91.7226 29.7186 84.4068 29.7186 84.2273 34.8441C84.2273 36.9797 85.9456 38.7205 88.0615 38.7205H88.0679Z" fill="#6D1ED1"/>
<path d="M94.159 72.597C94.1847 73.9819 92.9664 75.2115 91.5943 75.1856H84.5414C81.1496 75.0756 81.1561 70.1184 84.5414 70.0084H91.5943C93.0113 70.0084 94.159 71.1668 94.159 72.597ZM88.0679 68.7205C90.1838 68.7205 91.9021 66.9862 91.9021 64.8441C91.7226 59.7186 84.4068 59.7186 84.2273 64.8441C84.2273 66.9797 85.9456 68.7205 88.0615 68.7205H88.0679Z" fill="#6D1ED1"/>
<path d="M94.159 102.597C94.1847 103.982 92.9664 105.211 91.5943 105.186H84.5414C81.1496 105.076 81.1561 100.118 84.5414 100.008H91.5943C93.0113 100.008 94.159 101.167 94.159 102.597ZM88.0679 98.7205C90.1838 98.7205 91.9021 96.9862 91.9021 94.8441C91.7226 89.7186 84.4068 89.7186 84.2273 94.8441C84.2273 96.9797 85.9456 98.7205 88.0615 98.7205H88.0679Z" fill="#6D1ED1"/>
<path d="M94.159 132.597C94.1847 133.982 92.9664 135.211 91.5943 135.186H84.5414C81.1496 135.076 81.1561 130.118 84.5414 130.008H91.5943C93.0113 130.008 94.159 131.167 94.159 132.597ZM88.0679 128.721C90.1838 128.721 91.9021 126.986 91.9021 124.844C91.7226 119.719 84.4068 119.719 84.2273 124.844C84.2273 126.98 85.9456 128.721 88.0615 128.721H88.0679Z" fill="#6D1ED1"/>
<path d="M94.159 162.597C94.1847 163.982 92.9664 165.211 91.5943 165.186H84.5414C81.1496 165.076 81.1561 160.118 84.5414 160.008H91.5943C93.0113 160.008 94.159 161.167 94.159 162.597ZM88.0679 158.721C90.1838 158.721 91.9021 156.986 91.9021 154.844C91.7226 149.719 84.4068 149.719 84.2273 154.844C84.2273 156.98 85.9456 158.721 88.0615 158.721H88.0679Z" fill="#6D1ED1"/>
<path d="M93.744 194.336C93.7696 195.721 92.5514 196.95 91.1793 196.924H84.1264C80.7346 196.814 80.741 191.857 84.1264 191.747H91.1793C92.5963 191.747 93.744 192.906 93.744 194.336ZM87.6529 190.459C89.7687 190.459 91.4871 188.725 91.4871 186.583C91.3075 181.457 83.9918 181.457 83.8122 186.583C83.8122 188.718 85.5306 190.459 87.6464 190.459H87.6529Z" fill="#6D1ED1"/>
</svg>
