<svg width="25" height="25" viewBox="0 0 25 25" fill="none" xmlns="http://www.w3.org/2000/svg">
<path d="M12.4998 3.59714C14.1151 3.59714 15.5787 4.25264 16.6374 5.31142C17.6965 6.3705 18.352 7.83378 18.352 9.44932C18.352 10.8283 17.8737 12.0966 17.0755 13.0969C18.3093 13.829 19.3536 14.8475 20.1152 16.0613C20.9836 17.4452 21.4859 19.0811 21.4859 20.8292V21.19C23.661 18.9411 25 15.877 25 12.5002C25 9.0479 23.6007 5.92232 21.3392 3.66081C19.0777 1.3993 15.9521 0 12.4998 0C9.0479 0 5.92232 1.3993 3.66081 3.66081C1.3993 5.92232 0 9.0479 0 12.5002C0 15.877 1.33901 18.9411 3.51408 21.19V20.8292C3.51408 19.0798 4.0164 17.4452 4.88477 16.0613C5.64609 14.8481 6.69041 13.829 7.92422 13.0972C7.12537 12.0966 6.64766 10.8283 6.64766 9.44932C6.64766 7.83378 7.30316 6.3705 8.36225 5.31142C9.42103 4.25264 10.8849 3.59714 12.4998 3.59714ZM20.3386 22.238V20.8292C20.3386 19.2995 19.9021 17.8734 19.1475 16.6707C18.4323 15.531 17.4317 14.5879 16.2471 13.9422C15.2314 14.7909 13.9244 15.3015 12.4998 15.3015C11.0741 15.3015 9.76677 14.7909 8.75168 13.9428C7.5674 14.5885 6.56737 15.5313 5.8525 16.6707C5.09794 17.8734 4.66145 19.2992 4.66145 20.8292V22.238C6.80515 23.9655 9.53176 25 12.4998 25C15.4682 25 18.1949 23.9655 20.3386 22.238ZM15.8269 6.12227C14.9761 5.27112 13.7992 4.74419 12.4998 4.74419C11.2008 4.74419 10.0236 5.27112 9.17279 6.12227C8.32195 6.9731 7.79502 8.14969 7.79502 9.44932C7.79502 10.7486 8.32195 11.9252 9.17279 12.7764C10.0236 13.6272 11.2005 14.1541 12.4998 14.1541C13.7604 14.1541 14.9038 13.6601 15.7463 12.8567L15.7897 12.8148L15.8269 12.7764C16.6777 11.9252 17.2047 10.7486 17.2047 9.44932C17.2047 8.14969 16.6777 6.9731 15.8269 6.12227Z" fill="#AFBFD1"/>
</svg>
