<svg width="16" height="25" viewBox="0 0 16 25" fill="none" xmlns="http://www.w3.org/2000/svg">
<path d="M4.98463 11.3636V5.53028C3.46157 5.71222 2.30771 6.96972 2.30771 8.45444C2.30771 9.93917 3.46157 11.1819 4.98463 11.3636ZM8.70766 11.3789V5.51528H7.29234V11.3789H8.70766ZM8.70766 19.5153V13.6514H7.29234V19.515L8.70766 19.5153ZM13.6923 16.5758C13.6923 15.0911 12.5384 13.8486 11.0154 13.6667V19.5C12.5384 19.3181 13.6923 18.0606 13.6923 16.5758ZM11.0154 11.3939C13.8 11.5758 16 13.8181 16 16.5758C16 19.3486 13.8 21.5758 11.0154 21.7728V23.8636C11.0154 24.5 10.4922 25 9.86151 25C9.21534 25 8.70766 24.5 8.70766 23.8636V21.7878H7.29234V23.8636C7.29234 24.5 6.76915 25 6.13849 25C5.50783 25 4.98463 24.5 4.98463 23.8636V21.7878H2.8924C2.26174 21.7878 1.73854 21.2725 1.73854 20.6514C1.73854 20.015 2.26174 19.515 2.8924 19.515H4.98463V13.6364C2.19997 13.4544 0 11.2122 0 8.45444C0 5.68167 2.19997 3.45444 4.98463 3.2575V1.13639C4.98463 0.515278 5.50783 0 6.13849 0C6.76915 0 7.29234 0.515278 7.29234 1.13639V3.2425H8.70766V1.13639C8.70766 0.515278 9.21534 0 9.86151 0C10.4922 0 11.0154 0.515278 11.0154 1.13639V3.2425H13.1076C13.7383 3.2425 14.2615 3.75778 14.2615 4.37889C14.2615 5.01528 13.7383 5.51528 13.1076 5.51528H11.0154V11.3939Z" fill="#6D1ED1"/>
</svg>
