<svg width="25" height="21" viewBox="0 0 25 21" fill="none" xmlns="http://www.w3.org/2000/svg">
<path d="M1.82928 7.20899C1.82928 8.44592 0 8.44592 0 7.20899V0.940468C0 0.421034 0.409539 0 0.914791 0H24.0855C24.5905 0 25 0.421034 25 0.940468V6.8955C25 8.13243 23.1707 8.13243 23.1707 6.8955V1.88062H1.82928V7.20899ZM9.12429 14.0752C8.31626 13.1669 9.65961 11.9038 10.4676 12.8117L11.5855 14.0689V7.49284C11.5855 6.25591 13.4151 6.25591 13.4151 7.49284V14.0689L14.5327 12.8117C15.3407 11.9038 16.6841 13.1669 15.876 14.0752L13.1816 17.1054C12.8239 17.5188 12.1935 17.5264 11.8285 17.1161L9.12429 14.0752ZM4.03956 2.97752H20.9604C21.4654 2.97752 21.8749 3.39855 21.8749 3.91767V20.0595C21.8749 20.579 21.4654 21 20.9604 21H4.03956C3.53462 21 3.12508 20.579 3.12508 20.0595V3.91767C3.12508 3.39855 3.53462 2.97752 4.03956 2.97752ZM20.0456 4.85814H4.95435V19.1194H20.0456V4.85814Z" fill="#6D1ED1"/>
</svg>
