<svg width="18" height="18" viewBox="0 0 18 18" fill="none" xmlns="http://www.w3.org/2000/svg">
<path d="M13.7413 5.94427L8.36264 12.9258C8.29613 13.0122 8.21067 13.0822 8.11285 13.1304C8.01503 13.1785 7.90745 13.2036 7.79842 13.2036C7.68914 13.2034 7.58137 13.1781 7.48346 13.1296C7.38554 13.0811 7.30009 13.0107 7.23372 12.9239L4.25873 9.03277C4.14392 8.88269 4.09343 8.69314 4.11837 8.50584C4.14331 8.31853 4.24163 8.1488 4.39172 8.03398C4.5418 7.91917 4.73134 7.86868 4.91865 7.89362C5.10596 7.91856 5.27569 8.01688 5.3905 8.16696L7.80269 11.3205L12.6123 5.07467C12.6694 5.00054 12.7406 4.93839 12.8217 4.89176C12.9028 4.84513 12.9923 4.81493 13.0851 4.80289C13.1779 4.79085 13.2722 4.7972 13.3625 4.82159C13.4528 4.84597 13.5375 4.88791 13.6116 4.94501C13.6857 5.00211 13.7479 5.07325 13.7945 5.15437C13.8412 5.23549 13.8714 5.325 13.8834 5.41779C13.8954 5.51058 13.8891 5.60483 13.8647 5.69517C13.8403 5.7855 13.7984 5.87015 13.7413 5.94427ZM18 3.562V14.438C18.0005 15.1933 17.7591 15.9289 17.3113 16.5372C17.2877 16.5759 17.2605 16.6123 17.2301 16.646C16.7763 17.2198 16.1571 17.6403 15.4563 17.8504C15.4468 17.8537 15.4377 17.8547 15.4282 17.8575C15.1072 17.9515 14.7744 17.9995 14.4399 18H3.562C2.61761 17.999 1.71219 17.6234 1.0444 16.9556C0.37661 16.2878 0.00100575 15.3824 0 14.438V3.562C0.000338143 3.02801 0.120957 2.50095 0.352901 2.01996C0.584845 1.53897 0.922157 1.11641 1.33979 0.783641C1.38388 0.740342 1.43355 0.703126 1.48749 0.672981C2.09089 0.235816 2.81689 0.000297497 3.562 0H14.438C15.3824 0.00100575 16.2878 0.37661 16.9556 1.0444C17.6234 1.71219 17.999 2.61761 18 3.562ZM14.6755 4.03694C14.6755 3.47012 14.4503 2.92651 14.0495 2.52571C13.6487 2.1249 13.1051 1.89974 12.5383 1.89974H3.72443C2.03652 1.89974 1.4248 3.25757 1.4248 4.55034V14.438C1.4248 15.0048 1.64997 15.5484 2.05077 15.9492C2.45158 16.35 2.99518 16.5752 3.562 16.5752H12.031C13.4881 16.5752 14.6755 15.9849 14.6755 14.2153V4.03694Z" fill="#2FD89B"/>
</svg>
