<svg width="24" height="23" viewBox="0 0 24 23" fill="none" xmlns="http://www.w3.org/2000/svg">
<path d="M1 21.952V21.28C1 18.352 4.11615 16 7.85552 16H16.1445C19.8839 16 23 18.352 23 21.28V22L21.1303 21.952V21.28C21.1303 19.12 18.8867 17.392 16.1445 17.392H7.85552C5.11331 17.392 2.86969 19.168 2.86969 21.28V21.952H1Z" fill="#6D1ED1" stroke="#6D1ED1"/>
<path d="M11.9683 1C15.3333 1 18 3.66667 18 7.03175C18 10.3333 15.3333 13 11.9683 13C8.66667 13 6 10.3333 6 7.03175C6 3.66667 8.66667 1 11.9683 1ZM11.9683 2.90476C9.68254 2.90476 7.84127 4.74603 7.84127 7.03175C7.84127 9.31746 9.68254 11.1587 11.9683 11.1587C14.254 11.1587 16.0952 9.31746 16.0952 7.03175C16.0952 4.74603 14.254 2.90476 11.9683 2.90476Z" fill="#6D1ED1" stroke="#6D1ED1"/>
</svg>
