<svg width="18" height="25" viewBox="0 0 18 25" fill="none" xmlns="http://www.w3.org/2000/svg">
<path d="M5.68772 1.95517C5.94351 0.835703 6.95161 0 8.15625 0H9.84375C11.0484 0 12.0565 0.835703 12.3123 1.95517H15.75C16.9926 1.95517 18 2.95558 18 4.18966V22.0655C18 23.2996 16.9926 24.3 15.75 24.3H2.25C1.00736 24.3 0 23.2996 0 22.0655V4.18966C0 2.95558 1.00736 1.95517 2.25 1.95517H5.68772ZM5.625 4.18966H2.25V22.0655H15.75V4.18966H12.375V6.14483H5.625V4.18966ZM10.6875 4.46897V2.51379C10.6875 2.05102 10.3097 1.67586 9.84375 1.67586H8.15625C7.69026 1.67586 7.3125 2.05102 7.3125 2.51379V4.46897H10.6875Z" fill="#6D1ED1"/>
<path fill-rule="evenodd" clip-rule="evenodd" d="M3.59961 8.1002C3.59961 7.60314 4.00255 7.2002 4.49961 7.2002H8.99961C9.49667 7.2002 9.89961 7.60314 9.89961 8.1002C9.89961 8.59725 9.49667 9.0002 8.99961 9.0002H4.49961C4.00255 9.0002 3.59961 8.59725 3.59961 8.1002Z" fill="#6D1ED1"/>
<path fill-rule="evenodd" clip-rule="evenodd" d="M3.59961 11.6998C3.59961 11.2027 4.00255 10.7998 4.49961 10.7998H11.6996C12.1967 10.7998 12.5996 11.2027 12.5996 11.6998C12.5996 12.1969 12.1967 12.5998 11.6996 12.5998H4.49961C4.00255 12.5998 3.59961 12.1969 3.59961 11.6998Z" fill="#6D1ED1"/>
<path fill-rule="evenodd" clip-rule="evenodd" d="M3.59961 15.3004C3.59961 14.8033 4.00255 14.4004 4.49961 14.4004H11.6996C12.1967 14.4004 12.5996 14.8033 12.5996 15.3004C12.5996 15.7974 12.1967 16.2004 11.6996 16.2004H4.49961C4.00255 16.2004 3.59961 15.7974 3.59961 15.3004Z" fill="#6D1ED1"/>
<path fill-rule="evenodd" clip-rule="evenodd" d="M3.59961 18.9C3.59961 18.4029 4.00255 18 4.49961 18H11.6996C12.1967 18 12.5996 18.4029 12.5996 18.9C12.5996 19.3971 12.1967 19.8 11.6996 19.8H4.49961C4.00255 19.8 3.59961 19.3971 3.59961 18.9Z" fill="#6D1ED1"/>
</svg>
